<mxfile host="Electron" modified="2023-10-22T01:58:48.318Z" agent="Mozilla/5.0 (Windows NT 10.0; Win64; x64) AppleWebKit/537.36 (KHTML, like Gecko) draw.io/22.0.3 Chrome/114.0.5735.289 Electron/25.8.4 Safari/537.36" etag="Cr8qYmsXMjkAS1Jz-I99" version="22.0.3" type="device">
  <diagram name="PÃ¡gina-1" id="sW1KA7AYZyVYEQ3tkRH6">
    <mxGraphModel dx="503" dy="1904" grid="1" gridSize="5" guides="1" tooltips="1" connect="1" arrows="1" fold="1" page="1" pageScale="1" pageWidth="900" pageHeight="1600" math="0" shadow="0">
      <root>
        <mxCell id="0" />
        <mxCell id="1" parent="0" />
        <mxCell id="k_RozOxkvB2d1GZJaJB8-33" value="Pool" style="swimlane;childLayout=stackLayout;resizeParent=1;resizeParentMax=0;startSize=0;html=1;" parent="1" vertex="1">
          <mxGeometry x="30" y="5" width="680" height="1200" as="geometry" />
        </mxCell>
        <mxCell id="k_RozOxkvB2d1GZJaJB8-34" value="Sectores de Prod." style="swimlane;startSize=20;html=1;" parent="k_RozOxkvB2d1GZJaJB8-33" vertex="1">
          <mxGeometry width="120" height="1200" as="geometry" />
        </mxCell>
        <mxCell id="JJXoWRjUlbfeYxnv3nY6-1" value="1" style="ellipse;whiteSpace=wrap;html=1;aspect=fixed;" vertex="1" parent="k_RozOxkvB2d1GZJaJB8-34">
          <mxGeometry x="15" y="35" width="30" height="30" as="geometry" />
        </mxCell>
        <mxCell id="JJXoWRjUlbfeYxnv3nY6-2" value="&lt;font style=&quot;font-size: 10px;&quot;&gt;Emite&lt;/font&gt;" style="text;html=1;strokeColor=none;fillColor=none;align=center;verticalAlign=middle;whiteSpace=wrap;rounded=0;" vertex="1" parent="k_RozOxkvB2d1GZJaJB8-34">
          <mxGeometry x="50" y="30" width="35" height="10" as="geometry" />
        </mxCell>
        <mxCell id="JJXoWRjUlbfeYxnv3nY6-3" value="NP3" style="shape=document;whiteSpace=wrap;html=1;boundedLbl=1;" vertex="1" parent="k_RozOxkvB2d1GZJaJB8-34">
          <mxGeometry x="77.5" y="45" width="35" height="25" as="geometry" />
        </mxCell>
        <mxCell id="JJXoWRjUlbfeYxnv3nY6-4" value="NP2" style="shape=document;whiteSpace=wrap;html=1;boundedLbl=1;" vertex="1" parent="k_RozOxkvB2d1GZJaJB8-34">
          <mxGeometry x="62.5" y="55" width="35" height="25" as="geometry" />
        </mxCell>
        <mxCell id="JJXoWRjUlbfeYxnv3nY6-5" value="NP1" style="shape=document;whiteSpace=wrap;html=1;boundedLbl=1;" vertex="1" parent="k_RozOxkvB2d1GZJaJB8-34">
          <mxGeometry x="45" y="65" width="35" height="25" as="geometry" />
        </mxCell>
        <mxCell id="JJXoWRjUlbfeYxnv3nY6-13" value="" style="edgeStyle=elbowEdgeStyle;elbow=horizontal;endArrow=classic;html=1;curved=0;rounded=0;endSize=8;startSize=8;exitX=0;exitY=0.5;exitDx=0;exitDy=0;" edge="1" parent="k_RozOxkvB2d1GZJaJB8-34" source="JJXoWRjUlbfeYxnv3nY6-14">
          <mxGeometry width="50" height="50" relative="1" as="geometry">
            <mxPoint x="150" y="205" as="sourcePoint" />
            <mxPoint x="75" y="180" as="targetPoint" />
          </mxGeometry>
        </mxCell>
        <mxCell id="JJXoWRjUlbfeYxnv3nY6-18" value="NP3" style="shape=document;whiteSpace=wrap;html=1;boundedLbl=1;" vertex="1" parent="k_RozOxkvB2d1GZJaJB8-34">
          <mxGeometry x="42.5" y="145" width="35" height="25" as="geometry" />
        </mxCell>
        <mxCell id="JJXoWRjUlbfeYxnv3nY6-19" value="NP2" style="shape=document;whiteSpace=wrap;html=1;boundedLbl=1;" vertex="1" parent="k_RozOxkvB2d1GZJaJB8-34">
          <mxGeometry x="27.5" y="155" width="35" height="25" as="geometry" />
        </mxCell>
        <mxCell id="JJXoWRjUlbfeYxnv3nY6-21" style="edgeStyle=orthogonalEdgeStyle;rounded=0;orthogonalLoop=1;jettySize=auto;html=1;" edge="1" parent="k_RozOxkvB2d1GZJaJB8-34">
          <mxGeometry relative="1" as="geometry">
            <mxPoint x="50" y="250" as="targetPoint" />
            <mxPoint x="50" y="220" as="sourcePoint" />
          </mxGeometry>
        </mxCell>
        <mxCell id="JJXoWRjUlbfeYxnv3nY6-20" value="" style="shape=cube;whiteSpace=wrap;html=1;boundedLbl=1;backgroundOutline=1;darkOpacity=0.05;darkOpacity2=0.1;size=10;" vertex="1" parent="k_RozOxkvB2d1GZJaJB8-34">
          <mxGeometry x="35" y="190" width="30" height="25" as="geometry" />
        </mxCell>
        <mxCell id="JJXoWRjUlbfeYxnv3nY6-29" style="edgeStyle=orthogonalEdgeStyle;rounded=0;orthogonalLoop=1;jettySize=auto;html=1;" edge="1" parent="k_RozOxkvB2d1GZJaJB8-34" source="JJXoWRjUlbfeYxnv3nY6-22">
          <mxGeometry relative="1" as="geometry">
            <mxPoint x="50" y="370" as="targetPoint" />
          </mxGeometry>
        </mxCell>
        <mxCell id="JJXoWRjUlbfeYxnv3nY6-22" value="" style="whiteSpace=wrap;html=1;aspect=fixed;" vertex="1" parent="k_RozOxkvB2d1GZJaJB8-34">
          <mxGeometry x="37.5" y="305" width="25" height="25" as="geometry" />
        </mxCell>
        <mxCell id="JJXoWRjUlbfeYxnv3nY6-25" value="&lt;font style=&quot;font-size: 10px;&quot;&gt;Controla los materiales&lt;/font&gt;" style="text;html=1;strokeColor=none;fillColor=none;align=center;verticalAlign=middle;whiteSpace=wrap;rounded=0;" vertex="1" parent="k_RozOxkvB2d1GZJaJB8-34">
          <mxGeometry x="75" y="257.5" width="35" height="10" as="geometry" />
        </mxCell>
        <mxCell id="JJXoWRjUlbfeYxnv3nY6-27" style="edgeStyle=orthogonalEdgeStyle;rounded=0;orthogonalLoop=1;jettySize=auto;html=1;entryX=0.5;entryY=0;entryDx=0;entryDy=0;" edge="1" parent="k_RozOxkvB2d1GZJaJB8-34" source="JJXoWRjUlbfeYxnv3nY6-26" target="JJXoWRjUlbfeYxnv3nY6-22">
          <mxGeometry relative="1" as="geometry" />
        </mxCell>
        <mxCell id="JJXoWRjUlbfeYxnv3nY6-26" value="4" style="ellipse;whiteSpace=wrap;html=1;aspect=fixed;" vertex="1" parent="k_RozOxkvB2d1GZJaJB8-34">
          <mxGeometry x="35" y="247.5" width="30" height="30" as="geometry" />
        </mxCell>
        <mxCell id="JJXoWRjUlbfeYxnv3nY6-28" value="" style="shape=cube;whiteSpace=wrap;html=1;boundedLbl=1;backgroundOutline=1;darkOpacity=0.05;darkOpacity2=0.1;size=10;" vertex="1" parent="k_RozOxkvB2d1GZJaJB8-34">
          <mxGeometry x="75" y="300" width="30" height="25" as="geometry" />
        </mxCell>
        <mxCell id="JJXoWRjUlbfeYxnv3nY6-30" value="5" style="ellipse;whiteSpace=wrap;html=1;aspect=fixed;" vertex="1" parent="k_RozOxkvB2d1GZJaJB8-34">
          <mxGeometry x="35" y="370" width="30" height="30" as="geometry" />
        </mxCell>
        <mxCell id="JJXoWRjUlbfeYxnv3nY6-31" value="NP3" style="shape=document;whiteSpace=wrap;html=1;boundedLbl=1;" vertex="1" parent="k_RozOxkvB2d1GZJaJB8-34">
          <mxGeometry x="82.5" y="360" width="35" height="25" as="geometry" />
        </mxCell>
        <mxCell id="JJXoWRjUlbfeYxnv3nY6-32" value="NP2" style="shape=document;whiteSpace=wrap;html=1;boundedLbl=1;" vertex="1" parent="k_RozOxkvB2d1GZJaJB8-34">
          <mxGeometry x="67.5" y="377.5" width="35" height="25" as="geometry" />
        </mxCell>
        <mxCell id="JJXoWRjUlbfeYxnv3nY6-34" value="" style="triangle;whiteSpace=wrap;html=1;rotation=-90;" vertex="1" parent="k_RozOxkvB2d1GZJaJB8-34">
          <mxGeometry x="87.5" y="410" width="25" height="30" as="geometry" />
        </mxCell>
        <mxCell id="JJXoWRjUlbfeYxnv3nY6-33" value="" style="endArrow=classic;html=1;rounded=0;exitX=0.847;exitY=0.826;exitDx=0;exitDy=0;exitPerimeter=0;" edge="1" parent="k_RozOxkvB2d1GZJaJB8-34" source="JJXoWRjUlbfeYxnv3nY6-31" target="JJXoWRjUlbfeYxnv3nY6-34">
          <mxGeometry width="50" height="50" relative="1" as="geometry">
            <mxPoint x="185" y="440" as="sourcePoint" />
            <mxPoint x="95" y="420" as="targetPoint" />
          </mxGeometry>
        </mxCell>
        <mxCell id="JJXoWRjUlbfeYxnv3nY6-35" value="d" style="text;html=1;strokeColor=none;fillColor=none;align=center;verticalAlign=middle;whiteSpace=wrap;rounded=0;" vertex="1" parent="k_RozOxkvB2d1GZJaJB8-34">
          <mxGeometry x="87.5" y="425" width="25" height="5" as="geometry" />
        </mxCell>
        <mxCell id="JJXoWRjUlbfeYxnv3nY6-36" value="" style="endArrow=none;html=1;rounded=0;" edge="1" parent="k_RozOxkvB2d1GZJaJB8-34">
          <mxGeometry width="50" height="50" relative="1" as="geometry">
            <mxPoint x="110" y="395" as="sourcePoint" />
            <mxPoint x="85" y="370" as="targetPoint" />
          </mxGeometry>
        </mxCell>
        <mxCell id="k_RozOxkvB2d1GZJaJB8-35" value="Almacenes" style="swimlane;startSize=20;html=1;" parent="k_RozOxkvB2d1GZJaJB8-33" vertex="1">
          <mxGeometry x="120" width="120" height="1200" as="geometry" />
        </mxCell>
        <mxCell id="JJXoWRjUlbfeYxnv3nY6-15" style="edgeStyle=orthogonalEdgeStyle;rounded=0;orthogonalLoop=1;jettySize=auto;html=1;entryX=0.5;entryY=0;entryDx=0;entryDy=0;" edge="1" parent="k_RozOxkvB2d1GZJaJB8-35" source="JJXoWRjUlbfeYxnv3nY6-7" target="JJXoWRjUlbfeYxnv3nY6-14">
          <mxGeometry relative="1" as="geometry" />
        </mxCell>
        <mxCell id="JJXoWRjUlbfeYxnv3nY6-7" value="2" style="ellipse;whiteSpace=wrap;html=1;aspect=fixed;" vertex="1" parent="k_RozOxkvB2d1GZJaJB8-35">
          <mxGeometry x="15" y="95" width="30" height="30" as="geometry" />
        </mxCell>
        <mxCell id="JJXoWRjUlbfeYxnv3nY6-8" value="&lt;font style=&quot;font-size: 10px;&quot;&gt;Se reciben&lt;/font&gt;" style="text;html=1;strokeColor=none;fillColor=none;align=center;verticalAlign=middle;whiteSpace=wrap;rounded=0;" vertex="1" parent="k_RozOxkvB2d1GZJaJB8-35">
          <mxGeometry x="30" y="72.5" width="35" height="10" as="geometry" />
        </mxCell>
        <mxCell id="JJXoWRjUlbfeYxnv3nY6-9" value="NP3" style="shape=document;whiteSpace=wrap;html=1;boundedLbl=1;" vertex="1" parent="k_RozOxkvB2d1GZJaJB8-35">
          <mxGeometry x="82.5" y="95" width="35" height="25" as="geometry" />
        </mxCell>
        <mxCell id="JJXoWRjUlbfeYxnv3nY6-10" value="NP2" style="shape=document;whiteSpace=wrap;html=1;boundedLbl=1;" vertex="1" parent="k_RozOxkvB2d1GZJaJB8-35">
          <mxGeometry x="67.5" y="105" width="35" height="25" as="geometry" />
        </mxCell>
        <mxCell id="JJXoWRjUlbfeYxnv3nY6-11" value="NP1" style="shape=document;whiteSpace=wrap;html=1;boundedLbl=1;" vertex="1" parent="k_RozOxkvB2d1GZJaJB8-35">
          <mxGeometry x="50" y="115" width="35" height="25" as="geometry" />
        </mxCell>
        <mxCell id="JJXoWRjUlbfeYxnv3nY6-14" value="3" style="ellipse;whiteSpace=wrap;html=1;aspect=fixed;" vertex="1" parent="k_RozOxkvB2d1GZJaJB8-35">
          <mxGeometry x="15" y="165" width="30" height="30" as="geometry" />
        </mxCell>
        <mxCell id="JJXoWRjUlbfeYxnv3nY6-16" value="&lt;font style=&quot;font-size: 10px;&quot;&gt;Entrega los materiales&lt;/font&gt;" style="text;html=1;strokeColor=none;fillColor=none;align=center;verticalAlign=middle;whiteSpace=wrap;rounded=0;" vertex="1" parent="k_RozOxkvB2d1GZJaJB8-35">
          <mxGeometry x="55" y="170" width="35" height="10" as="geometry" />
        </mxCell>
        <mxCell id="JJXoWRjUlbfeYxnv3nY6-49" style="edgeStyle=orthogonalEdgeStyle;rounded=0;orthogonalLoop=1;jettySize=auto;html=1;" edge="1" parent="k_RozOxkvB2d1GZJaJB8-35" source="JJXoWRjUlbfeYxnv3nY6-42">
          <mxGeometry relative="1" as="geometry">
            <mxPoint x="55" y="575" as="targetPoint" />
          </mxGeometry>
        </mxCell>
        <mxCell id="JJXoWRjUlbfeYxnv3nY6-42" value="" style="whiteSpace=wrap;html=1;aspect=fixed;" vertex="1" parent="k_RozOxkvB2d1GZJaJB8-35">
          <mxGeometry x="42.5" y="505" width="25" height="25" as="geometry" />
        </mxCell>
        <mxCell id="JJXoWRjUlbfeYxnv3nY6-46" style="edgeStyle=orthogonalEdgeStyle;rounded=0;orthogonalLoop=1;jettySize=auto;html=1;" edge="1" parent="k_RozOxkvB2d1GZJaJB8-35" source="JJXoWRjUlbfeYxnv3nY6-43">
          <mxGeometry relative="1" as="geometry">
            <mxPoint x="87.5" y="670" as="targetPoint" />
          </mxGeometry>
        </mxCell>
        <mxCell id="JJXoWRjUlbfeYxnv3nY6-43" value="NP2" style="shape=document;whiteSpace=wrap;html=1;boundedLbl=1;" vertex="1" parent="k_RozOxkvB2d1GZJaJB8-35">
          <mxGeometry x="70" y="617.5" width="35" height="25" as="geometry" />
        </mxCell>
        <mxCell id="JJXoWRjUlbfeYxnv3nY6-44" value="" style="endArrow=none;html=1;rounded=0;" edge="1" parent="k_RozOxkvB2d1GZJaJB8-35">
          <mxGeometry width="50" height="50" relative="1" as="geometry">
            <mxPoint x="112.5" y="635" as="sourcePoint" />
            <mxPoint x="87.5" y="610" as="targetPoint" />
          </mxGeometry>
        </mxCell>
        <mxCell id="JJXoWRjUlbfeYxnv3nY6-45" value="NP1" style="shape=document;whiteSpace=wrap;html=1;boundedLbl=1;" vertex="1" parent="k_RozOxkvB2d1GZJaJB8-35">
          <mxGeometry x="5" y="505" width="35" height="25" as="geometry" />
        </mxCell>
        <mxCell id="JJXoWRjUlbfeYxnv3nY6-47" value="" style="triangle;whiteSpace=wrap;html=1;rotation=-90;" vertex="1" parent="k_RozOxkvB2d1GZJaJB8-35">
          <mxGeometry x="75" y="665" width="25" height="30" as="geometry" />
        </mxCell>
        <mxCell id="JJXoWRjUlbfeYxnv3nY6-48" value="c" style="text;html=1;strokeColor=none;fillColor=none;align=center;verticalAlign=middle;whiteSpace=wrap;rounded=0;" vertex="1" parent="k_RozOxkvB2d1GZJaJB8-35">
          <mxGeometry x="75" y="680" width="25" height="5" as="geometry" />
        </mxCell>
        <mxCell id="JJXoWRjUlbfeYxnv3nY6-53" style="edgeStyle=orthogonalEdgeStyle;rounded=0;orthogonalLoop=1;jettySize=auto;html=1;" edge="1" parent="k_RozOxkvB2d1GZJaJB8-35" source="JJXoWRjUlbfeYxnv3nY6-50">
          <mxGeometry relative="1" as="geometry">
            <mxPoint x="55" y="700" as="targetPoint" />
          </mxGeometry>
        </mxCell>
        <mxCell id="JJXoWRjUlbfeYxnv3nY6-50" value="" style="ellipse;whiteSpace=wrap;html=1;aspect=fixed;" vertex="1" parent="k_RozOxkvB2d1GZJaJB8-35">
          <mxGeometry x="40" y="575" width="30" height="30" as="geometry" />
        </mxCell>
        <mxCell id="JJXoWRjUlbfeYxnv3nY6-51" value="" style="endArrow=none;html=1;rounded=0;entryX=0.5;entryY=0;entryDx=0;entryDy=0;exitX=0;exitY=1;exitDx=0;exitDy=0;" edge="1" parent="k_RozOxkvB2d1GZJaJB8-35" source="JJXoWRjUlbfeYxnv3nY6-50" target="JJXoWRjUlbfeYxnv3nY6-50">
          <mxGeometry width="50" height="50" relative="1" as="geometry">
            <mxPoint x="65" y="555" as="sourcePoint" />
            <mxPoint x="115" y="505" as="targetPoint" />
          </mxGeometry>
        </mxCell>
        <mxCell id="JJXoWRjUlbfeYxnv3nY6-52" value="" style="endArrow=none;html=1;rounded=0;entryX=0.5;entryY=0;entryDx=0;entryDy=0;exitX=1;exitY=1;exitDx=0;exitDy=0;" edge="1" parent="k_RozOxkvB2d1GZJaJB8-35" source="JJXoWRjUlbfeYxnv3nY6-50" target="JJXoWRjUlbfeYxnv3nY6-50">
          <mxGeometry width="50" height="50" relative="1" as="geometry">
            <mxPoint x="65" y="555" as="sourcePoint" />
            <mxPoint x="115" y="505" as="targetPoint" />
          </mxGeometry>
        </mxCell>
        <mxCell id="JJXoWRjUlbfeYxnv3nY6-55" value="6" style="ellipse;whiteSpace=wrap;html=1;aspect=fixed;" vertex="1" parent="k_RozOxkvB2d1GZJaJB8-35">
          <mxGeometry x="42.5" y="700" width="30" height="30" as="geometry" />
        </mxCell>
        <mxCell id="JJXoWRjUlbfeYxnv3nY6-56" value="&lt;font style=&quot;font-size: 10px;&quot;&gt;Anota y envia&lt;/font&gt;" style="text;html=1;strokeColor=none;fillColor=none;align=center;verticalAlign=middle;whiteSpace=wrap;rounded=0;" vertex="1" parent="k_RozOxkvB2d1GZJaJB8-35">
          <mxGeometry x="5" y="710" width="35" height="10" as="geometry" />
        </mxCell>
        <mxCell id="JJXoWRjUlbfeYxnv3nY6-60" value="NP2" style="shape=document;whiteSpace=wrap;html=1;boundedLbl=1;" vertex="1" parent="k_RozOxkvB2d1GZJaJB8-35">
          <mxGeometry x="75" y="505" width="35" height="25" as="geometry" />
        </mxCell>
        <mxCell id="JJXoWRjUlbfeYxnv3nY6-61" value="" style="endArrow=none;html=1;rounded=0;" edge="1" parent="k_RozOxkvB2d1GZJaJB8-35">
          <mxGeometry width="50" height="50" relative="1" as="geometry">
            <mxPoint x="117.5" y="522.5" as="sourcePoint" />
            <mxPoint x="92.5" y="497.5" as="targetPoint" />
          </mxGeometry>
        </mxCell>
        <mxCell id="k_RozOxkvB2d1GZJaJB8-36" value="Contabilidad de Almacenes" style="swimlane;startSize=20;html=1;" parent="k_RozOxkvB2d1GZJaJB8-33" vertex="1">
          <mxGeometry x="240" width="200" height="1200" as="geometry" />
        </mxCell>
        <mxCell id="JJXoWRjUlbfeYxnv3nY6-125" style="edgeStyle=orthogonalEdgeStyle;rounded=0;orthogonalLoop=1;jettySize=auto;html=1;" edge="1" parent="k_RozOxkvB2d1GZJaJB8-36" source="JJXoWRjUlbfeYxnv3nY6-58">
          <mxGeometry relative="1" as="geometry">
            <mxPoint x="77.5" y="865" as="targetPoint" />
          </mxGeometry>
        </mxCell>
        <mxCell id="JJXoWRjUlbfeYxnv3nY6-58" value="7" style="ellipse;whiteSpace=wrap;html=1;aspect=fixed;" vertex="1" parent="k_RozOxkvB2d1GZJaJB8-36">
          <mxGeometry x="62.5" y="795" width="30" height="30" as="geometry" />
        </mxCell>
        <mxCell id="JJXoWRjUlbfeYxnv3nY6-124" style="edgeStyle=orthogonalEdgeStyle;rounded=0;orthogonalLoop=1;jettySize=auto;html=1;" edge="1" parent="k_RozOxkvB2d1GZJaJB8-36" source="JJXoWRjUlbfeYxnv3nY6-123">
          <mxGeometry relative="1" as="geometry">
            <mxPoint x="78" y="795" as="targetPoint" />
          </mxGeometry>
        </mxCell>
        <mxCell id="JJXoWRjUlbfeYxnv3nY6-123" value="NP1" style="shape=document;whiteSpace=wrap;html=1;boundedLbl=1;" vertex="1" parent="k_RozOxkvB2d1GZJaJB8-36">
          <mxGeometry x="60" y="740" width="35" height="25" as="geometry" />
        </mxCell>
        <mxCell id="JJXoWRjUlbfeYxnv3nY6-59" value="&lt;font style=&quot;font-size: 10px;&quot;&gt;Registra en el Diario y Mayor de Stock las salidas, unidades e importes&lt;/font&gt;" style="text;html=1;strokeColor=none;fillColor=none;align=center;verticalAlign=middle;whiteSpace=wrap;rounded=0;" vertex="1" parent="k_RozOxkvB2d1GZJaJB8-36">
          <mxGeometry x="90" y="790" width="95" height="10" as="geometry" />
        </mxCell>
        <mxCell id="JJXoWRjUlbfeYxnv3nY6-128" style="edgeStyle=orthogonalEdgeStyle;rounded=0;orthogonalLoop=1;jettySize=auto;html=1;" edge="1" parent="k_RozOxkvB2d1GZJaJB8-36" source="JJXoWRjUlbfeYxnv3nY6-126">
          <mxGeometry relative="1" as="geometry">
            <mxPoint x="77.5" y="935" as="targetPoint" />
          </mxGeometry>
        </mxCell>
        <mxCell id="JJXoWRjUlbfeYxnv3nY6-126" value="" style="whiteSpace=wrap;html=1;aspect=fixed;" vertex="1" parent="k_RozOxkvB2d1GZJaJB8-36">
          <mxGeometry x="62.5" y="865" width="30" height="30" as="geometry" />
        </mxCell>
        <mxCell id="JJXoWRjUlbfeYxnv3nY6-127" value="&lt;font style=&quot;font-size: 10px;&quot;&gt;Se controlan las existencias de los materiales&lt;/font&gt;" style="text;html=1;strokeColor=none;fillColor=none;align=center;verticalAlign=middle;whiteSpace=wrap;rounded=0;" vertex="1" parent="k_RozOxkvB2d1GZJaJB8-36">
          <mxGeometry x="100" y="880" width="95" height="10" as="geometry" />
        </mxCell>
        <mxCell id="JJXoWRjUlbfeYxnv3nY6-129" value="8" style="ellipse;whiteSpace=wrap;html=1;aspect=fixed;" vertex="1" parent="k_RozOxkvB2d1GZJaJB8-36">
          <mxGeometry x="62.5" y="935" width="30" height="30" as="geometry" />
        </mxCell>
        <mxCell id="JJXoWRjUlbfeYxnv3nY6-130" value="&lt;font style=&quot;font-size: 10px;&quot;&gt;Completa la nota de pedidos y la envia&lt;/font&gt;" style="text;html=1;strokeColor=none;fillColor=none;align=center;verticalAlign=middle;whiteSpace=wrap;rounded=0;" vertex="1" parent="k_RozOxkvB2d1GZJaJB8-36">
          <mxGeometry x="90" y="940" width="95" height="10" as="geometry" />
        </mxCell>
        <mxCell id="JJXoWRjUlbfeYxnv3nY6-131" value="NP1" style="shape=document;whiteSpace=wrap;html=1;boundedLbl=1;" vertex="1" parent="k_RozOxkvB2d1GZJaJB8-36">
          <mxGeometry x="15" y="937.5" width="35" height="25" as="geometry" />
        </mxCell>
        <mxCell id="JJXoWRjUlbfeYxnv3nY6-136" value="" style="endArrow=none;html=1;rounded=0;" edge="1" parent="k_RozOxkvB2d1GZJaJB8-36">
          <mxGeometry width="50" height="50" relative="1" as="geometry">
            <mxPoint x="25" y="925" as="sourcePoint" />
            <mxPoint x="50" y="956.1428571428571" as="targetPoint" />
          </mxGeometry>
        </mxCell>
        <mxCell id="JJXoWRjUlbfeYxnv3nY6-138" value="" style="endArrow=none;html=1;rounded=0;" edge="1" parent="k_RozOxkvB2d1GZJaJB8-36">
          <mxGeometry width="50" height="50" relative="1" as="geometry">
            <mxPoint x="75" y="730" as="sourcePoint" />
            <mxPoint x="100" y="761.1428571428571" as="targetPoint" />
          </mxGeometry>
        </mxCell>
        <mxCell id="JJXoWRjUlbfeYxnv3nY6-139" value="9" style="ellipse;whiteSpace=wrap;html=1;aspect=fixed;" vertex="1" parent="k_RozOxkvB2d1GZJaJB8-36">
          <mxGeometry x="70" y="1070" width="30" height="30" as="geometry" />
        </mxCell>
        <mxCell id="JJXoWRjUlbfeYxnv3nY6-140" value="&lt;font style=&quot;font-size: 10px;&quot;&gt;Emite un comprobante de resumen y lo envia&lt;/font&gt;" style="text;html=1;strokeColor=none;fillColor=none;align=center;verticalAlign=middle;whiteSpace=wrap;rounded=0;" vertex="1" parent="k_RozOxkvB2d1GZJaJB8-36">
          <mxGeometry x="105" y="1070" width="95" height="10" as="geometry" />
        </mxCell>
        <mxCell id="JJXoWRjUlbfeYxnv3nY6-141" value="CR" style="shape=document;whiteSpace=wrap;html=1;boundedLbl=1;" vertex="1" parent="k_RozOxkvB2d1GZJaJB8-36">
          <mxGeometry x="15" y="1075" width="35" height="25" as="geometry" />
        </mxCell>
        <mxCell id="JJXoWRjUlbfeYxnv3nY6-147" value="&lt;font color=&quot;#fb0404&quot; style=&quot;font-size: 10px;&quot;&gt;Mensualmente&lt;/font&gt;" style="text;html=1;strokeColor=none;fillColor=none;align=center;verticalAlign=middle;whiteSpace=wrap;rounded=0;" vertex="1" parent="k_RozOxkvB2d1GZJaJB8-36">
          <mxGeometry y="1015" width="95" height="10" as="geometry" />
        </mxCell>
        <mxCell id="k_RozOxkvB2d1GZJaJB8-38" value="Contabilidad de Costos y Gral." style="swimlane;startSize=20;html=1;" parent="k_RozOxkvB2d1GZJaJB8-33" vertex="1">
          <mxGeometry x="440" width="240" height="1200" as="geometry" />
        </mxCell>
        <mxCell id="JJXoWRjUlbfeYxnv3nY6-134" value="NP1" style="shape=document;whiteSpace=wrap;html=1;boundedLbl=1;" vertex="1" parent="k_RozOxkvB2d1GZJaJB8-38">
          <mxGeometry x="45" y="992.5" width="35" height="25" as="geometry" />
        </mxCell>
        <mxCell id="JJXoWRjUlbfeYxnv3nY6-135" value="" style="endArrow=none;html=1;rounded=0;" edge="1" parent="k_RozOxkvB2d1GZJaJB8-38">
          <mxGeometry width="50" height="50" relative="1" as="geometry">
            <mxPoint x="60" y="980" as="sourcePoint" />
            <mxPoint x="85" y="1011.1428571428571" as="targetPoint" />
          </mxGeometry>
        </mxCell>
        <mxCell id="JJXoWRjUlbfeYxnv3nY6-137" value="" style="endArrow=none;html=1;rounded=0;" edge="1" parent="k_RozOxkvB2d1GZJaJB8-38">
          <mxGeometry width="50" height="50" relative="1" as="geometry">
            <mxPoint x="55" y="985" as="sourcePoint" />
            <mxPoint x="80" y="1016.1428571428571" as="targetPoint" />
          </mxGeometry>
        </mxCell>
        <mxCell id="JJXoWRjUlbfeYxnv3nY6-145" value="CR" style="shape=document;whiteSpace=wrap;html=1;boundedLbl=1;" vertex="1" parent="k_RozOxkvB2d1GZJaJB8-38">
          <mxGeometry x="75" y="1120" width="35" height="25" as="geometry" />
        </mxCell>
        <mxCell id="JJXoWRjUlbfeYxnv3nY6-6" value="" style="edgeStyle=elbowEdgeStyle;elbow=horizontal;endArrow=classic;html=1;curved=0;rounded=0;endSize=8;startSize=8;exitX=0.5;exitY=1;exitDx=0;exitDy=0;entryX=0;entryY=0.5;entryDx=0;entryDy=0;" edge="1" parent="k_RozOxkvB2d1GZJaJB8-33" source="JJXoWRjUlbfeYxnv3nY6-1" target="JJXoWRjUlbfeYxnv3nY6-7">
          <mxGeometry width="50" height="50" relative="1" as="geometry">
            <mxPoint x="185" y="95" as="sourcePoint" />
            <mxPoint x="160" y="110" as="targetPoint" />
            <Array as="points">
              <mxPoint x="30" y="90" />
            </Array>
          </mxGeometry>
        </mxCell>
        <mxCell id="JJXoWRjUlbfeYxnv3nY6-37" value="" style="edgeStyle=elbowEdgeStyle;elbow=horizontal;endArrow=classic;html=1;curved=0;rounded=0;endSize=8;startSize=8;exitX=0.5;exitY=1;exitDx=0;exitDy=0;" edge="1" parent="1" source="JJXoWRjUlbfeYxnv3nY6-30">
          <mxGeometry width="50" height="50" relative="1" as="geometry">
            <mxPoint x="215" y="445" as="sourcePoint" />
            <mxPoint x="180" y="455" as="targetPoint" />
            <Array as="points">
              <mxPoint x="80" y="435" />
            </Array>
          </mxGeometry>
        </mxCell>
        <mxCell id="JJXoWRjUlbfeYxnv3nY6-40" style="edgeStyle=orthogonalEdgeStyle;rounded=0;orthogonalLoop=1;jettySize=auto;html=1;" edge="1" parent="1" source="JJXoWRjUlbfeYxnv3nY6-38">
          <mxGeometry relative="1" as="geometry">
            <mxPoint x="202.5" y="510" as="targetPoint" />
          </mxGeometry>
        </mxCell>
        <mxCell id="JJXoWRjUlbfeYxnv3nY6-38" value="NP2" style="shape=document;whiteSpace=wrap;html=1;boundedLbl=1;" vertex="1" parent="1">
          <mxGeometry x="185" y="440" width="35" height="25" as="geometry" />
        </mxCell>
        <mxCell id="JJXoWRjUlbfeYxnv3nY6-39" value="" style="endArrow=none;html=1;rounded=0;" edge="1" parent="1">
          <mxGeometry width="50" height="50" relative="1" as="geometry">
            <mxPoint x="227.5" y="457.5" as="sourcePoint" />
            <mxPoint x="202.5" y="432.5" as="targetPoint" />
          </mxGeometry>
        </mxCell>
        <mxCell id="JJXoWRjUlbfeYxnv3nY6-54" value="" style="endArrow=none;html=1;rounded=0;entryX=0;entryY=0.5;entryDx=0;entryDy=0;" edge="1" parent="1" target="JJXoWRjUlbfeYxnv3nY6-43">
          <mxGeometry width="50" height="50" relative="1" as="geometry">
            <mxPoint x="205" y="635" as="sourcePoint" />
            <mxPoint x="265" y="610" as="targetPoint" />
          </mxGeometry>
        </mxCell>
        <mxCell id="JJXoWRjUlbfeYxnv3nY6-57" value="" style="edgeStyle=elbowEdgeStyle;elbow=horizontal;endArrow=classic;html=1;curved=0;rounded=0;endSize=8;startSize=8;exitX=0.5;exitY=1;exitDx=0;exitDy=0;" edge="1" parent="1" source="JJXoWRjUlbfeYxnv3nY6-55">
          <mxGeometry width="50" height="50" relative="1" as="geometry">
            <mxPoint x="215" y="775" as="sourcePoint" />
            <mxPoint x="320" y="755" as="targetPoint" />
            <Array as="points">
              <mxPoint x="208" y="750" />
            </Array>
          </mxGeometry>
        </mxCell>
        <mxCell id="JJXoWRjUlbfeYxnv3nY6-132" value="" style="endArrow=none;html=1;rounded=0;" edge="1" parent="1">
          <mxGeometry width="50" height="50" relative="1" as="geometry">
            <mxPoint x="300" y="930" as="sourcePoint" />
            <mxPoint x="325" y="961.1428571428571" as="targetPoint" />
          </mxGeometry>
        </mxCell>
        <mxCell id="JJXoWRjUlbfeYxnv3nY6-133" value="" style="edgeStyle=elbowEdgeStyle;elbow=horizontal;endArrow=classic;html=1;curved=0;rounded=0;endSize=8;startSize=8;exitX=0.5;exitY=1;exitDx=0;exitDy=0;" edge="1" parent="1" source="JJXoWRjUlbfeYxnv3nY6-129">
          <mxGeometry width="50" height="50" relative="1" as="geometry">
            <mxPoint x="415" y="940" as="sourcePoint" />
            <mxPoint x="510" y="1010" as="targetPoint" />
            <Array as="points">
              <mxPoint x="345" y="990" />
            </Array>
          </mxGeometry>
        </mxCell>
        <mxCell id="JJXoWRjUlbfeYxnv3nY6-144" value="" style="edgeStyle=elbowEdgeStyle;elbow=horizontal;endArrow=classic;html=1;curved=0;rounded=0;endSize=8;startSize=8;exitX=0.5;exitY=1;exitDx=0;exitDy=0;" edge="1" parent="1" source="JJXoWRjUlbfeYxnv3nY6-139">
          <mxGeometry width="50" height="50" relative="1" as="geometry">
            <mxPoint x="425" y="1130" as="sourcePoint" />
            <mxPoint x="535" y="1135" as="targetPoint" />
            <Array as="points">
              <mxPoint x="355" y="1120" />
            </Array>
          </mxGeometry>
        </mxCell>
        <mxCell id="JJXoWRjUlbfeYxnv3nY6-146" value="" style="endArrow=none;dashed=1;html=1;strokeWidth=2;rounded=0;dashPattern=12 12;strokeColor=#ff0000;" edge="1" parent="1">
          <mxGeometry width="50" height="50" relative="1" as="geometry">
            <mxPoint x="13.857142857142858" y="1035" as="sourcePoint" />
            <mxPoint x="740" y="1035" as="targetPoint" />
          </mxGeometry>
        </mxCell>
      </root>
    </mxGraphModel>
  </diagram>
</mxfile>
